<svg width="24" height="24" viewBox="0 0 24 24" fill="none" xmlns="http://www.w3.org/2000/svg">
<path d="M12.25 11.25V11.75H12.75H16.2427C16.3807 11.75 16.4927 11.8619 16.4927 12C16.4927 12.1381 16.3807 12.25 16.2427 12.25H12.75H12.25V12.75V16.2426C12.25 16.3807 12.1381 16.4926 12 16.4926C11.8619 16.4926 11.75 16.3807 11.75 16.2426V12.75V12.25H11.25H7.75739C7.61931 12.25 7.50739 12.1381 7.50739 12C7.50739 11.8619 7.61931 11.75 7.75739 11.75H11.25H11.75V11.25V7.75735C11.75 7.61928 11.8619 7.50735 12 7.50735C12.1381 7.50735 12.25 7.61928 12.25 7.75735V11.25ZM16.711 3.52031C13.605 3.17316 10.395 3.17316 7.28897 3.52031C5.34903 3.73712 3.7809 5.2649 3.5523 7.21945C3.18081 10.3957 3.18081 13.6043 3.5523 16.7806C3.7809 18.7351 5.34903 20.2629 7.28896 20.4797C10.395 20.8268 13.605 20.8268 16.711 20.4797C18.6509 20.2629 20.2191 18.7351 20.4477 16.7806C20.8192 13.6044 20.8192 10.3957 20.4477 7.21945C20.2191 5.2649 18.6509 3.73712 16.711 3.52031Z" fill="#384CFF" stroke="white"/>
</svg>
