<svg width="22" height="22" viewBox="0 0 22 22" fill="none" xmlns="http://www.w3.org/2000/svg">
<path fill-rule="evenodd" clip-rule="evenodd" d="M10.75 1.5C5.64137 1.5 1.5 5.64137 1.5 10.75C1.5 15.8586 5.64137 20 10.75 20C12.3703 20 13.8913 19.584 15.2141 18.8536C15.5172 18.6863 15.8855 18.6437 16.2307 18.7606L20.0317 20.0486L18.771 16.191C18.6598 15.8506 18.7029 15.4891 18.8665 15.1907C19.5889 13.8733 20 12.3608 20 10.75C20 5.64137 15.8586 1.5 10.75 1.5ZM0 10.75C0 4.81294 4.81294 0 10.75 0C16.6871 0 21.5 4.81294 21.5 10.75C21.5 12.5837 21.0403 14.3121 20.2293 15.8243L21.6127 20.0573C21.9325 21.0359 20.9984 21.9599 20.0233 21.6295L15.85 20.2154C14.3318 21.035 12.5941 21.5 10.75 21.5C4.81294 21.5 0 16.6871 0 10.75Z" fill="#262626"/>
</svg>
