<svg width="14" height="3" viewBox="0 0 14 3" fill="none" xmlns="http://www.w3.org/2000/svg">
<g clip-path="url(#clip0_348_353)">
<path d="M0 1.5C0 1.89782 0.170194 2.27936 0.473137 2.56066C0.77608 2.84196 1.18696 3 1.61539 3C2.04381 3 2.45469 2.84196 2.75763 2.56066C3.06058 2.27936 3.23077 1.89782 3.23077 1.5C3.23077 1.10218 3.06058 0.720644 2.75763 0.43934C2.45469 0.158035 2.04381 0 1.61539 0C1.18696 0 0.77608 0.158035 0.473137 0.43934C0.170194 0.720644 0 1.10218 0 1.5Z" fill="#262626"/>
<path d="M5.38461 1.5C5.38461 1.89782 5.55481 2.27936 5.85775 2.56066C6.16069 2.84196 6.57157 3 7 3C7.42842 3 7.8393 2.84196 8.14225 2.56066C8.44519 2.27936 8.61538 1.89782 8.61538 1.5C8.61538 1.10218 8.44519 0.720644 8.14225 0.43934C7.8393 0.158035 7.42842 0 7 0C6.57157 0 6.16069 0.158035 5.85775 0.43934C5.55481 0.720644 5.38461 1.10218 5.38461 1.5Z" fill="#262626"/>
<path d="M10.7692 1.5C10.7692 1.89782 10.9394 2.27936 11.2424 2.56066C11.5453 2.84196 11.9562 3 12.3846 3C12.813 3 13.2239 2.84196 13.5269 2.56066C13.8298 2.27936 14 1.89782 14 1.5C14 1.10218 13.8298 0.720644 13.5269 0.43934C13.2239 0.158035 12.813 0 12.3846 0C11.9562 0 11.5453 0.158035 11.2424 0.43934C10.9394 0.720644 10.7692 1.10218 10.7692 1.5Z" fill="#262626"/>
</g>
<defs>
<clipPath id="clip0_348_353">
<rect width="14" height="3" fill="white"/>
</clipPath>
</defs>
</svg>
