<svg width="22" height="22" viewBox="0 0 22 22" fill="none" xmlns="http://www.w3.org/2000/svg">
<path d="M13.3638 1.83969C12.0708 0.720104 9.92924 0.720102 8.6363 1.83969L2.32114 7.30813C1.95845 7.62219 1.71473 8.01923 1.62069 8.44922C0.853731 11.956 0.797118 15.546 1.45323 19.0686L1.68552 20.3157C1.75889 20.7096 2.16353 21 2.63904 21H7.0518C7.41522 21 7.70984 20.753 7.70984 20.4483V12.7241H14.2902V20.4483C14.2902 20.753 14.5848 21 14.9483 21H19.361C19.8365 21 20.2411 20.7096 20.3145 20.3157L20.5468 19.0686C21.2029 15.546 21.1463 11.956 20.3793 8.44921C20.2853 8.01923 20.0416 7.62219 19.6789 7.30813L13.3638 1.83969Z" stroke="black"/>
</svg>
