<svg width="91" height="16" viewBox="0 0 91 16" fill="none" xmlns="http://www.w3.org/2000/svg">
<path d="M1.88 15V7.8H0.52V5.74H1.88V4.44C1.88 3.13333 2.19333 2.1 2.82 1.34C3.46 0.58 4.31333 0.2 5.38 0.2C6.23333 0.2 7.09333 0.406666 7.96 0.819999L7.42 2.84C7.22 2.73333 6.98 2.64667 6.7 2.58C6.43333 2.5 6.18667 2.46 5.96 2.46C5.02667 2.46 4.56 3.08667 4.56 4.34V5.74H7.12V7.8H4.56V15H1.88ZM11.5409 15.2C11.0343 15.2 10.5609 15.12 10.1209 14.96C9.68094 14.7867 9.30094 14.5533 8.98094 14.26C8.66094 13.9533 8.4076 13.6 8.22094 13.2C8.0476 12.8 7.96094 12.36 7.96094 11.88C7.96094 11.3867 8.0676 10.9333 8.28094 10.52C8.5076 10.0933 8.81427 9.73333 9.20094 9.44C9.60094 9.14667 10.0743 8.92 10.6209 8.76C11.1676 8.58667 11.7676 8.5 12.4209 8.5C12.8876 8.5 13.3409 8.54 13.7809 8.62C14.2343 8.7 14.6343 8.81333 14.9809 8.96V8.36C14.9809 7.66667 14.7809 7.13333 14.3809 6.76C13.9943 6.38667 13.4143 6.2 12.6409 6.2C12.0809 6.2 11.5343 6.3 11.0009 6.5C10.4676 6.7 9.92094 6.99333 9.36094 7.38L8.54094 5.68C9.8876 4.78667 11.3409 4.34 12.9009 4.34C14.4076 4.34 15.5743 4.71333 16.4009 5.46C17.2409 6.19333 17.6609 7.26 17.6609 8.66V11.92C17.6609 12.2 17.7143 12.4 17.8209 12.52C17.9276 12.64 18.1143 12.7067 18.3809 12.72V15C18.1276 15.0533 17.8876 15.0867 17.6609 15.1C17.4476 15.1267 17.2609 15.14 17.1009 15.14C16.5943 15.1267 16.2076 15.0133 15.9409 14.8C15.6743 14.5733 15.5076 14.2733 15.4409 13.9L15.3809 13.32C14.9143 13.9333 14.3476 14.4 13.6809 14.72C13.0143 15.04 12.3009 15.2 11.5409 15.2ZM12.3009 13.24C12.7543 13.24 13.1809 13.16 13.5809 13C13.9943 12.84 14.3143 12.6267 14.5409 12.36C14.8343 12.1333 14.9809 11.88 14.9809 11.6V10.4C14.6609 10.28 14.3143 10.1867 13.9409 10.12C13.5676 10.04 13.2076 10 12.8609 10C12.1676 10 11.6009 10.16 11.1609 10.48C10.7209 10.7867 10.5009 11.18 10.5009 11.66C10.5009 12.1133 10.6743 12.4933 11.0209 12.8C11.3676 13.0933 11.7943 13.24 12.3009 13.24ZM19.5834 9.76C19.5834 9.02667 19.7101 8.33333 19.9634 7.68C20.2168 7.02667 20.5834 6.45333 21.0634 5.96C21.5434 5.46667 22.1234 5.07333 22.8034 4.78C23.4834 4.48667 24.2501 4.34 25.1034 4.34C26.2501 4.34 27.2234 4.58667 28.0234 5.08C28.8368 5.57333 29.4434 6.22 29.8434 7.02L27.2234 7.82C26.9968 7.43333 26.6968 7.14 26.3234 6.94C25.9501 6.72667 25.5368 6.62 25.0834 6.62C24.6968 6.62 24.3368 6.7 24.0034 6.86C23.6701 7.00667 23.3768 7.22 23.1234 7.5C22.8834 7.76667 22.6901 8.09333 22.5434 8.48C22.4101 8.86667 22.3434 9.29333 22.3434 9.76C22.3434 10.2267 22.4168 10.6533 22.5634 11.04C22.7101 11.4267 22.9034 11.76 23.1434 12.04C23.3968 12.32 23.6901 12.54 24.0234 12.7C24.3568 12.8467 24.7101 12.92 25.0834 12.92C25.5634 12.92 26.0034 12.8 26.4034 12.56C26.8168 12.32 27.1034 12.0267 27.2634 11.68L29.8834 12.48C29.5234 13.28 28.9301 13.9333 28.1034 14.44C27.2768 14.9467 26.2834 15.2 25.1234 15.2C24.2701 15.2 23.5034 15.0533 22.8234 14.76C22.1434 14.4667 21.5634 14.0733 21.0834 13.58C20.6034 13.0733 20.2301 12.4933 19.9634 11.84C19.7101 11.1733 19.5834 10.48 19.5834 9.76ZM36.3925 15.2C35.5525 15.2 34.7925 15.06 34.1125 14.78C33.4325 14.4867 32.8525 14.0933 32.3725 13.6C31.8925 13.1067 31.5192 12.5333 31.2525 11.88C30.9992 11.2267 30.8725 10.54 30.8725 9.82C30.8725 9.07333 30.9992 8.37333 31.2525 7.72C31.5058 7.05333 31.8725 6.47333 32.3525 5.98C32.8325 5.47333 33.4125 5.07333 34.0925 4.78C34.7858 4.48667 35.5592 4.34 36.4125 4.34C37.2658 4.34 38.0258 4.48667 38.6925 4.78C39.3725 5.07333 39.9458 5.46667 40.4125 5.96C40.8925 6.45333 41.2525 7.02667 41.4925 7.68C41.7458 8.33333 41.8725 9.01333 41.8725 9.72C41.8725 9.89333 41.8658 10.06 41.8525 10.22C41.8525 10.38 41.8392 10.5133 41.8125 10.62H33.7125C33.7525 11.0333 33.8525 11.4 34.0125 11.72C34.1725 12.04 34.3792 12.3133 34.6325 12.54C34.8858 12.7667 35.1725 12.94 35.4925 13.06C35.8125 13.18 36.1458 13.24 36.4925 13.24C37.0258 13.24 37.5258 13.1133 37.9925 12.86C38.4725 12.5933 38.7992 12.2467 38.9725 11.82L41.2725 12.46C40.8858 13.26 40.2658 13.92 39.4125 14.44C38.5725 14.9467 37.5658 15.2 36.3925 15.2ZM39.1125 8.88C39.0458 8.09333 38.7525 7.46667 38.2325 7C37.7258 6.52 37.1058 6.28 36.3725 6.28C36.0125 6.28 35.6725 6.34667 35.3525 6.48C35.0458 6.6 34.7725 6.77333 34.5325 7C34.2925 7.22667 34.0925 7.5 33.9325 7.82C33.7858 8.14 33.6992 8.49333 33.6725 8.88H39.1125ZM49.4647 15.2C48.6647 15.2 47.9514 15.02 47.3247 14.66C46.698 14.3 46.2047 13.8067 45.8447 13.18V15H43.5047V0.4H46.1847V6.36C46.558 5.72 47.0447 5.22667 47.6447 4.88C48.258 4.52 48.9647 4.34 49.7647 4.34C50.4447 4.34 51.0647 4.48667 51.6247 4.78C52.198 5.07333 52.6847 5.46667 53.0847 5.96C53.498 6.45333 53.8114 7.03333 54.0247 7.7C54.2514 8.36667 54.3647 9.06667 54.3647 9.8C54.3647 10.56 54.238 11.2667 53.9847 11.92C53.7447 12.5733 53.4047 13.1467 52.9647 13.64C52.5247 14.12 52.0047 14.5 51.4047 14.78C50.8047 15.06 50.158 15.2 49.4647 15.2ZM48.7247 12.92C49.1514 12.92 49.538 12.84 49.8847 12.68C50.2447 12.5067 50.5514 12.28 50.8047 12C51.0714 11.72 51.2714 11.3933 51.4047 11.02C51.5514 10.6467 51.6247 10.2467 51.6247 9.82C51.6247 9.39333 51.558 8.98667 51.4247 8.6C51.2914 8.21333 51.098 7.87333 50.8447 7.58C50.6047 7.28667 50.318 7.05333 49.9847 6.88C49.6514 6.70667 49.2847 6.62 48.8847 6.62C48.2847 6.62 47.7447 6.82 47.2647 7.22C46.798 7.60667 46.438 8.08667 46.1847 8.66V11.16C46.278 11.4267 46.4114 11.6667 46.5847 11.88C46.7714 12.0933 46.978 12.28 47.2047 12.44C47.4314 12.5867 47.678 12.7067 47.9447 12.8C48.2114 12.88 48.4714 12.92 48.7247 12.92ZM61.0209 15.2C60.1676 15.2 59.4009 15.0533 58.7209 14.76C58.0409 14.4667 57.4609 14.0733 56.9809 13.58C56.5143 13.0733 56.1543 12.4933 55.9009 11.84C55.6476 11.1867 55.5209 10.5 55.5209 9.78C55.5209 9.04667 55.6476 8.35333 55.9009 7.7C56.1543 7.04667 56.5143 6.47333 56.9809 5.98C57.4609 5.47333 58.0409 5.07333 58.7209 4.78C59.4009 4.48667 60.1676 4.34 61.0209 4.34C61.8743 4.34 62.6343 4.48667 63.3009 4.78C63.9809 5.07333 64.5543 5.47333 65.0209 5.98C65.5009 6.47333 65.8676 7.04667 66.1209 7.7C66.3743 8.35333 66.5009 9.04667 66.5009 9.78C66.5009 10.5 66.3743 11.1867 66.1209 11.84C65.8676 12.4933 65.5076 13.0733 65.0409 13.58C64.5743 14.0733 64.0009 14.4667 63.3209 14.76C62.6409 15.0533 61.8743 15.2 61.0209 15.2ZM58.2809 9.78C58.2809 10.2467 58.3476 10.6733 58.4809 11.06C58.6276 11.4333 58.8209 11.76 59.0609 12.04C59.3143 12.32 59.6076 12.54 59.9409 12.7C60.2743 12.8467 60.6343 12.92 61.0209 12.92C61.4076 12.92 61.7676 12.8467 62.1009 12.7C62.4343 12.54 62.7209 12.32 62.9609 12.04C63.2143 11.76 63.4076 11.4267 63.5409 11.04C63.6876 10.6533 63.7609 10.2267 63.7609 9.76C63.7609 9.30667 63.6876 8.88667 63.5409 8.5C63.4076 8.11333 63.2143 7.78 62.9609 7.5C62.7209 7.22 62.4343 7.00667 62.1009 6.86C61.7676 6.7 61.4076 6.62 61.0209 6.62C60.6343 6.62 60.2743 6.7 59.9409 6.86C59.6076 7.02 59.3143 7.24 59.0609 7.52C58.8209 7.8 58.6276 8.13333 58.4809 8.52C58.3476 8.90667 58.2809 9.32667 58.2809 9.78ZM73.1303 15.2C72.277 15.2 71.5103 15.0533 70.8303 14.76C70.1503 14.4667 69.5703 14.0733 69.0903 13.58C68.6236 13.0733 68.2636 12.4933 68.0103 11.84C67.757 11.1867 67.6303 10.5 67.6303 9.78C67.6303 9.04667 67.757 8.35333 68.0103 7.7C68.2636 7.04667 68.6236 6.47333 69.0903 5.98C69.5703 5.47333 70.1503 5.07333 70.8303 4.78C71.5103 4.48667 72.277 4.34 73.1303 4.34C73.9836 4.34 74.7436 4.48667 75.4103 4.78C76.0903 5.07333 76.6636 5.47333 77.1303 5.98C77.6103 6.47333 77.977 7.04667 78.2303 7.7C78.4836 8.35333 78.6103 9.04667 78.6103 9.78C78.6103 10.5 78.4836 11.1867 78.2303 11.84C77.977 12.4933 77.617 13.0733 77.1503 13.58C76.6836 14.0733 76.1103 14.4667 75.4303 14.76C74.7503 15.0533 73.9836 15.2 73.1303 15.2ZM70.3903 9.78C70.3903 10.2467 70.457 10.6733 70.5903 11.06C70.737 11.4333 70.9303 11.76 71.1703 12.04C71.4236 12.32 71.717 12.54 72.0503 12.7C72.3836 12.8467 72.7436 12.92 73.1303 12.92C73.517 12.92 73.877 12.8467 74.2103 12.7C74.5436 12.54 74.8303 12.32 75.0703 12.04C75.3236 11.76 75.517 11.4267 75.6503 11.04C75.797 10.6533 75.8703 10.2267 75.8703 9.76C75.8703 9.30667 75.797 8.88667 75.6503 8.5C75.517 8.11333 75.3236 7.78 75.0703 7.5C74.8303 7.22 74.5436 7.00667 74.2103 6.86C73.877 6.7 73.517 6.62 73.1303 6.62C72.7436 6.62 72.3836 6.7 72.0503 6.86C71.717 7.02 71.4236 7.24 71.1703 7.52C70.9303 7.8 70.737 8.13333 70.5903 8.52C70.457 8.90667 70.3903 9.32667 70.3903 9.78ZM87.5397 15L84.4997 10.46L83.0597 11.88V15H80.3797V0.4H83.0597V9.26L87.2597 4.54H90.1197L86.1997 8.98L90.3997 15H87.5397Z" fill="url(#paint0_linear_54_1499)"/>
<defs>
<linearGradient id="paint0_linear_54_1499" x1="-7.26219e-06" y1="-8.18181" x2="90.6233" y2="23.8975" gradientUnits="userSpaceOnUse">
<stop stop-color="#384CFF"/>
<stop offset="1" stop-color="#00A3FF"/>
</linearGradient>
</defs>
</svg>
