<svg width="103" height="30" viewBox="0 0 103 30" fill="none" xmlns="http://www.w3.org/2000/svg">
<g clip-path="url(#clip0_348_199)">
<path d="M5.45713 0.185269C3.35565 1.08446 1.04541 3.62157 0.315766 6.80845C-0.608296 10.8453 3.23709 12.5526 3.55249 11.9935C3.9237 11.3358 2.86346 11.1134 2.64519 9.01882C2.36315 6.31349 3.59448 3.2906 5.14432 1.96423C5.43224 1.71781 5.41859 2.06079 5.41859 2.6952C5.41859 3.82969 5.35724 14.014 5.35724 16.1394C5.35724 19.0155 5.24093 19.9237 5.03199 20.8211C4.82046 21.7305 4.48018 22.345 4.73785 22.5817C5.02594 22.8465 6.25589 22.2166 6.96791 21.2017C7.82163 19.9844 8.12044 18.5224 8.17418 16.9348C8.23899 15.021 8.23622 11.9842 8.23899 10.252C8.24141 8.66331 8.26509 4.01132 8.21168 1.21473C8.19855 0.528775 6.33608 -0.190894 5.45713 0.185269Z" fill="#343433"/>
<path d="M80.0805 13.645C80.0127 15.1401 79.6887 16.3088 79.2865 17.1332C78.508 18.7291 76.8925 19.2246 76.2066 16.9305C75.8328 15.6801 75.8153 13.5915 76.084 11.8464C76.3576 10.0687 77.1215 8.72609 78.3863 8.84718C79.6339 8.96686 80.2179 10.6088 80.0805 13.645ZM59.0481 22.9214C59.0312 25.4057 58.6484 27.584 57.8275 28.2166C56.6632 29.1137 55.0983 28.4408 55.4223 26.628C55.7091 25.0238 57.065 23.3855 59.0514 21.3838C59.0514 21.3838 59.0555 21.8402 59.0481 22.9214ZM58.7301 13.6303C58.6589 14.9922 58.3133 16.3602 57.9362 17.1332C57.1578 18.7291 55.5305 19.2279 54.8562 16.9305C54.3951 15.3607 54.5055 13.3292 54.7337 12.0491C55.0297 10.3882 55.7472 8.84736 57.036 8.84736C58.2889 8.84736 58.9067 10.2514 58.7301 13.6303ZM46.5462 13.6097C46.4698 15.0518 46.1943 16.2575 45.7523 17.1332C44.9525 18.7181 43.3701 19.2207 42.6723 16.9305C42.1692 15.279 42.3405 13.0273 42.5498 11.8109C42.8603 10.0059 43.638 8.72609 44.8521 8.84736C46.0991 8.9718 46.7054 10.6088 46.5462 13.6097ZM102.382 15.2942C102.077 15.2942 101.938 15.6153 101.823 16.1554C101.424 18.0341 101.004 18.4581 100.463 18.4581C99.8585 18.4581 99.3154 17.528 99.1757 15.6659C99.066 14.2017 99.0836 11.5063 99.224 8.82494C99.2526 8.27402 99.1038 7.72893 97.6572 7.19213C97.0347 6.96125 96.1298 6.62127 95.6793 7.73211C94.4063 10.8704 93.9082 13.362 93.791 14.374C93.785 14.4264 93.7221 14.4372 93.711 14.3147C93.6364 13.5041 93.4694 12.0309 93.4487 8.93597C93.4447 8.3321 93.3194 7.81807 92.6669 7.39725C92.2435 7.12418 90.9577 6.64122 90.4947 7.21579C90.0936 7.68568 89.6291 8.95027 89.1464 10.4493C88.7541 11.6676 88.4809 12.4918 88.4809 12.4918C88.4809 12.4918 88.486 9.20445 88.4907 7.95752C88.4928 7.4871 88.1769 7.33035 88.0816 7.30193C87.6529 7.17501 86.8081 6.96266 86.4495 6.96266C86.0071 6.96266 85.8988 7.21508 85.8988 7.58313C85.8988 7.63149 85.8289 11.9112 85.8289 14.9039C85.8289 15.034 85.8291 15.1757 85.8296 15.3265C85.5849 16.7019 84.7913 18.5692 83.9283 18.5692C83.0642 18.5692 82.6565 17.7886 82.6565 14.2208C82.6565 12.1396 82.7177 11.2344 82.7478 9.72907C82.7652 8.86201 82.7989 8.19618 82.797 8.04508C82.7906 7.58171 82.0062 7.34818 81.6412 7.26186C81.2745 7.17501 80.9558 7.14112 80.7069 7.1556C80.3547 7.17607 80.1055 7.4119 80.1055 7.73652C80.1055 7.91074 80.1074 8.24154 80.1074 8.24154C79.6538 7.5134 78.9241 7.00661 78.4387 6.85975C77.1311 6.46311 75.7667 6.81474 74.7376 8.2855C73.9197 9.45423 73.4266 10.7779 73.2325 12.6798C73.0906 14.0702 73.137 15.4801 73.3891 16.6725C73.0844 18.0179 72.5188 18.5692 71.8994 18.5692C71.0002 18.5692 70.3484 17.0702 70.424 14.4774C70.474 12.7723 70.8081 11.5755 71.1732 9.84416C71.3289 9.10613 71.2024 8.71973 70.8851 8.34939C70.5941 8.00977 69.974 7.83625 69.0826 8.04967C68.4477 8.20183 67.5399 8.36546 66.7093 8.49114C66.7093 8.49114 66.7594 8.28691 66.8006 7.92681C67.0166 6.0384 65.0076 6.19162 64.3666 6.79479C63.984 7.15489 63.7235 7.57959 63.6247 8.34322C63.4679 9.55502 64.4355 10.1266 64.4355 10.1266C64.1181 11.6111 63.3399 13.55 62.5364 14.9519C62.1061 15.703 61.7769 16.2596 61.3519 16.8513C61.3504 16.631 61.3492 16.4105 61.3485 16.1913C61.3388 13.0706 61.3794 10.6147 61.3974 9.72925C61.4148 8.86218 61.4489 8.21401 61.447 8.0629C61.4421 7.72416 61.2484 7.59601 60.8454 7.43397C60.4891 7.29063 60.0677 7.19143 59.6307 7.15683C59.079 7.11305 58.7467 7.41172 58.7553 7.76512C58.7571 7.83184 58.7571 8.24154 58.7571 8.24154C58.3034 7.5134 57.5738 7.00661 57.0883 6.85975C55.7808 6.46329 54.4164 6.81474 53.3872 8.2855C52.5695 9.45423 52.0339 11.0943 51.8822 12.6653C51.7408 14.1295 51.7669 15.3736 51.9596 16.422C51.7517 17.4716 51.1539 18.5692 50.478 18.5692C49.6139 18.5692 49.1222 17.7886 49.1222 14.2208C49.1222 12.1396 49.1834 11.2344 49.2135 9.72925C49.2309 8.86218 49.2646 8.19618 49.2627 8.04525C49.2564 7.58189 48.4719 7.34835 48.1069 7.26186C47.725 7.17166 47.3953 7.13847 47.1421 7.15771C46.808 7.18296 46.5732 7.48851 46.5732 7.7164V8.24154C46.1195 7.5134 45.3899 7.00661 44.9044 6.85975C43.5969 6.46329 42.2401 6.82039 41.2033 8.2855C40.5273 9.24082 39.98 10.2999 39.6983 12.6445C39.6169 13.3219 39.5809 13.9565 39.5856 14.5495C39.316 16.2336 38.1253 18.1745 37.1513 18.1745C36.5813 18.1745 36.0385 17.0453 36.0385 14.6388C36.0385 11.4332 36.2327 6.86928 36.2656 6.42939C36.2656 6.42939 37.4962 6.40804 37.7345 6.40521C38.3484 6.39833 38.9043 6.41316 39.7219 6.37044C40.132 6.34908 40.5271 4.84584 40.1039 4.65979C39.912 4.57559 38.5563 4.5018 38.0188 4.49015C37.5669 4.47974 36.3088 4.3846 36.3088 4.3846C36.3088 4.3846 36.4216 1.35517 36.4479 1.03514C36.4702 0.768422 36.1323 0.63109 35.9386 0.547773C35.4675 0.344247 35.046 0.246808 34.5464 0.141603C33.8561 -0.00384931 33.543 0.138425 33.4818 0.733472C33.3897 1.63654 33.342 4.28169 33.342 4.28169C32.8355 4.28169 31.1052 4.18054 30.5985 4.18054C30.1277 4.18054 29.6196 6.24846 30.2705 6.27388C31.0193 6.30354 32.3243 6.32931 33.1894 6.35579C33.1894 6.35579 33.1509 10.9951 33.1509 12.4275C33.1509 12.5799 33.1515 12.7265 33.1524 12.869C32.6763 15.4036 30.9993 16.7729 30.9993 16.7729C31.3594 15.096 30.6237 13.8367 29.2985 12.7707C28.8103 12.3779 27.8465 11.6342 26.7681 10.8193C26.7681 10.8193 27.3927 10.1907 27.9466 8.92555C28.3391 8.02937 28.356 7.00414 27.3927 6.77802C25.801 6.40415 24.4887 7.59813 24.0972 8.87278C23.7939 9.8604 23.9557 10.593 24.5498 11.3541C24.5932 11.4097 24.6402 11.4665 24.6888 11.5237C24.3295 12.2311 23.8359 13.1834 23.4179 13.9219C22.2576 15.9724 21.381 17.5942 20.7186 17.5942C20.1891 17.5942 20.1962 15.9475 20.1962 14.4058C20.1962 13.0768 20.2923 11.0786 20.369 9.00975C20.3944 8.32556 20.0595 7.93581 19.498 7.58277C19.1569 7.3683 18.4288 6.9466 18.0071 6.9466C17.376 6.9466 15.555 7.03433 13.8344 12.1179C13.6175 12.7587 13.1915 13.9262 13.1915 13.9262L13.2283 7.81295C13.2283 7.66962 13.1535 7.53105 12.9824 7.43626C12.6924 7.27545 11.918 6.9466 11.2295 6.9466C10.9015 6.9466 10.7376 7.10246 10.7376 7.41314L10.6777 16.9773C10.6777 17.7042 10.6962 18.5519 10.7665 18.9225C10.8367 19.2938 10.9502 19.5958 11.0907 19.7755C11.2312 19.9548 11.3937 20.0916 11.6614 20.1481C11.9106 20.2005 13.2755 20.3795 13.3463 19.8468C13.4314 19.2083 13.4347 18.5178 14.1513 15.9424C15.267 11.9327 16.7215 9.97637 17.4055 9.28159C17.5251 9.16015 17.6616 9.15291 17.6551 9.35167C17.6259 10.2307 17.5232 12.4275 17.4541 14.2935C17.2688 19.2876 18.1583 20.2133 19.4294 20.2133C20.4018 20.2133 21.7726 19.2263 23.2421 16.7281C24.1582 15.1712 25.0477 13.6446 25.6868 12.5444C26.1322 12.9655 26.632 13.4187 27.1314 13.9029C28.2921 15.028 28.6731 16.0972 28.4203 17.1115C28.2269 17.8869 27.4986 18.686 26.2025 17.9093C25.8247 17.6827 25.6635 17.5076 25.2836 17.2521C25.0795 17.115 24.7679 17.0739 24.5811 17.2177C24.0958 17.5914 23.8183 18.0668 23.6598 18.6553C23.5057 19.2279 24.0672 19.5307 24.6492 19.7954C25.1504 20.0233 26.2276 20.2298 26.9145 20.2533C29.5911 20.3448 31.7353 18.9333 33.2279 15.2924C33.4951 18.4369 34.6323 20.2161 36.6079 20.2161C37.9288 20.2161 39.2531 18.4722 39.8322 16.7567C39.9984 17.456 40.2445 18.0641 40.5624 18.5785C42.0847 21.0422 45.038 20.5119 46.5215 18.4198C46.9802 17.7734 47.05 17.5411 47.05 17.5411C47.2663 19.5165 48.8238 20.2067 49.7155 20.2067C50.7143 20.2067 51.7455 19.7245 52.4682 18.0625C52.5529 18.2429 52.6453 18.4152 52.7463 18.5785C54.2686 21.0422 57.2219 20.5119 58.7054 18.4198C58.7754 18.3217 58.836 18.2327 58.8891 18.1527L58.9326 19.4503C58.9326 19.4503 58.0864 20.2433 57.5669 20.7297C55.2775 22.8729 53.5385 24.4984 53.4106 26.3914C53.2478 28.8052 55.1631 29.7022 56.6145 29.8198C58.1529 29.9446 59.4727 29.0758 60.2827 27.8599C60.9956 26.7897 61.4622 24.4863 61.428 22.2113C61.4143 21.3003 61.3919 20.1419 61.3742 18.9003C62.1778 17.9471 63.0832 16.7422 63.9169 15.3321C64.8254 13.7954 65.7991 11.7315 66.2977 10.1254C66.2977 10.1254 67.1436 10.1328 68.0464 10.0724C68.3352 10.0532 68.4181 10.1134 68.3647 10.3296C68.3003 10.5908 67.2241 14.8305 68.2063 17.6548C68.8785 19.5882 70.394 20.2103 71.2925 20.2103C72.3442 20.2103 73.3504 19.399 73.8896 18.1942C73.9546 18.3286 74.0225 18.4585 74.0966 18.5785C75.619 21.0422 78.5619 20.5087 80.0558 18.4198C80.3929 17.9485 80.5842 17.5411 80.5842 17.5411C80.9048 19.5856 82.4614 20.2171 83.353 20.2171C84.2817 20.2171 85.1631 19.8283 85.8782 18.1C85.9081 18.8609 85.9551 19.4832 86.0294 19.6793C86.0747 19.7993 86.3386 19.9499 86.5306 20.0226C87.3802 20.3444 88.2467 20.1922 88.5673 20.1261C88.7893 20.0802 88.9625 19.8982 88.9862 19.4283C89.0484 18.1944 89.0102 16.1214 89.3764 14.5805C89.9911 11.9949 90.5645 10.9919 90.8365 10.4953C90.9888 10.2171 91.1606 10.1713 91.1668 10.4657C91.1796 11.0614 91.2086 12.8109 91.4468 15.1615C91.6217 16.8901 91.8553 17.912 92.0349 18.2354C92.5473 19.1601 93.1801 19.2039 93.6955 19.2039C94.0233 19.2039 94.7089 19.1114 94.6475 18.5229C94.6176 18.2361 94.67 16.4633 95.2761 13.9159C95.6718 12.2524 96.3317 10.7495 96.5696 10.1998C96.6574 9.9972 96.6982 10.157 96.6968 10.188C96.6467 11.3336 96.5342 15.0808 96.9911 17.1302C97.6105 19.9065 99.4023 20.2171 100.027 20.2171C101.36 20.2171 102.45 19.1815 102.817 16.4564C102.906 15.8006 102.775 15.2942 102.382 15.2942Z" fill="#343433"/>
</g>
<defs>
<clipPath id="clip0_348_199">
<rect width="103" height="30" fill="white"/>
</clipPath>
</defs>
</svg>
