<svg width="24" height="25" viewBox="0 0 24 25" fill="none" xmlns="http://www.w3.org/2000/svg">
<path fill-rule="evenodd" clip-rule="evenodd" d="M19.818 10.568C19.818 5.18322 15.4528 0.817993 10.068 0.817993C4.68322 0.817993 0.317993 5.18322 0.317993 10.568C0.317993 15.9528 4.68322 20.318 10.068 20.318C12.4906 20.318 14.7068 19.4344 16.412 17.972L22.4016 23.9623L22.4857 24.0349C22.7794 24.2528 23.196 24.2285 23.4623 23.9623C23.7552 23.6694 23.7552 23.1945 23.4623 22.9016L17.472 16.912C18.9344 15.2068 19.818 12.9906 19.818 10.568ZM1.81799 10.568C1.81799 6.01164 5.51164 2.31799 10.068 2.31799C14.6243 2.31799 18.318 6.01164 18.318 10.568C18.318 15.1243 14.6243 18.818 10.068 18.818C5.51164 18.818 1.81799 15.1243 1.81799 10.568Z" fill="#262626"/>
</svg>
