<svg width="28" height="18" viewBox="0 0 28 18" fill="none" xmlns="http://www.w3.org/2000/svg">
<path d="M26.1936 14.6926L22.2637 12.7282C22.0007 12.5967 21.7795 12.3945 21.625 12.1443C21.4704 11.8941 21.3886 11.6058 21.3887 11.3117V6.68836C21.3886 6.39427 21.4704 6.10597 21.625 5.85577C21.7795 5.60557 22.0007 5.40336 22.2637 5.2718L26.1936 3.30741C26.3544 3.22681 26.5332 3.18866 26.7129 3.19658C26.8927 3.2045 27.0674 3.25823 27.2205 3.35267C27.3737 3.44711 27.5001 3.57912 27.5879 3.73618C27.6757 3.89323 27.7218 4.07011 27.722 4.25002V13.75C27.722 13.93 27.676 14.107 27.5883 14.2642C27.5006 14.4214 27.3741 14.5536 27.221 14.6481C27.0678 14.7427 26.893 14.7965 26.7132 14.8045C26.5334 14.8125 26.3545 14.7743 26.1936 14.6937V14.6926Z" fill="url(#paint0_linear_310_1225)"/>
<path fill-rule="evenodd" clip-rule="evenodd" d="M0.277344 4.25005C0.277344 3.13025 0.722184 2.05631 1.514 1.26449C2.30582 0.472672 3.37976 0.027832 4.49957 0.027832H15.0551C16.1749 0.027832 17.2489 0.472672 18.0407 1.26449C18.8325 2.05631 19.2773 3.13025 19.2773 4.25005V13.7501C19.2773 14.8699 18.8325 15.9438 18.0407 16.7356C17.2489 17.5274 16.1749 17.9723 15.0551 17.9723H4.49957C3.37976 17.9723 2.30582 17.5274 1.514 16.7356C0.722184 15.9438 0.277344 14.8699 0.277344 13.7501V4.25005ZM8.72179 4.25005C8.72179 3.9701 8.833 3.70162 9.03095 3.50366C9.22891 3.30571 9.49739 3.1945 9.77734 3.1945C10.0573 3.1945 10.3258 3.30571 10.5237 3.50366C10.7217 3.70162 10.8329 3.9701 10.8329 4.25005V7.68061C10.8329 7.82628 10.9511 7.9445 11.0968 7.9445H14.5273C14.8073 7.9445 15.0758 8.05571 15.2737 8.25366C15.4717 8.45162 15.5829 8.7201 15.5829 9.00005C15.5829 9.28001 15.4717 9.54849 15.2737 9.74645C15.0758 9.9444 14.8073 10.0556 14.5273 10.0556H11.0968C11.0268 10.0556 10.9597 10.0834 10.9102 10.1329C10.8607 10.1824 10.8329 10.2495 10.8329 10.3195V13.7501C10.8329 14.03 10.7217 14.2985 10.5237 14.4964C10.3258 14.6944 10.0573 14.8056 9.77734 14.8056C9.49739 14.8056 9.22891 14.6944 9.03095 14.4964C8.833 14.2985 8.72179 14.03 8.72179 13.7501V10.3195C8.72179 10.2495 8.69399 10.1824 8.6445 10.1329C8.59501 10.0834 8.52789 10.0556 8.4579 10.0556H5.02734C4.74739 10.0556 4.47891 9.9444 4.28095 9.74645C4.083 9.54849 3.97179 9.28001 3.97179 9.00005C3.97179 8.7201 4.083 8.45162 4.28095 8.25366C4.47891 8.05571 4.74739 7.9445 5.02734 7.9445H8.4579C8.52789 7.9445 8.59501 7.9167 8.6445 7.86721C8.69399 7.81772 8.72179 7.7506 8.72179 7.68061V4.25005Z" fill="url(#paint1_linear_310_1225)"/>
<defs>
<linearGradient id="paint0_linear_310_1225" x1="21.5" y1="3" x2="28" y2="15" gradientUnits="userSpaceOnUse">
<stop stop-color="#384CFF"/>
<stop offset="1" stop-color="#00A3FF"/>
</linearGradient>
<linearGradient id="paint1_linear_310_1225" x1="1.4788e-07" y1="-1.15465e-07" x2="19" y2="18" gradientUnits="userSpaceOnUse">
<stop stop-color="#384CFF"/>
<stop offset="1" stop-color="#00A3FF"/>
</linearGradient>
</defs>
</svg>
